<?xml version="1.0" standalone="no"?>
<!DOCTYPE svg PUBLIC "-//W3C//DTD SVG 20010904//EN"
 "http://www.w3.org/TR/2001/REC-SVG-20010904/DTD/svg10.dtd">
<svg version="1.0" xmlns="http://www.w3.org/2000/svg"
 width="600.000000pt" height="400.000000pt" viewBox="0 0 600.000000 400.000000"
 preserveAspectRatio="xMidYMid meet">
<metadata>
Created by potrace 1.16, written by Peter Selinger 2001-2019
</metadata>
<g transform="translate(0.000000,400.000000) scale(0.100000,-0.100000)"
fill="#000000" stroke="none">
<path d="M0 2000 l0 -2000 3000 0 3000 0 0 2000 0 2000 -3000 0 -3000 0 0
-2000z m3355 1330 c3 -5 22 -10 41 -10 19 0 34 -4 34 -9 0 -5 10 -11 23 -13
25 -3 26 -18 3 -33 -11 -7 -22 -6 -36 3 -11 6 -31 12 -45 12 -14 0 -25 5 -25
10 0 6 -7 10 -15 10 -8 0 -15 9 -15 20 0 21 24 28 35 10z m8 -62 c12 -7 24
-16 27 -19 3 -4 15 -9 28 -13 12 -4 22 -15 22 -25 0 -23 -10 -33 -24 -22 -6 4
-28 11 -49 14 -48 7 -67 23 -67 53 0 27 26 32 63 12z m-21 -88 c7 -11 23 -20
35 -20 20 0 23 -5 23 -36 0 -41 -19 -64 -53 -64 -14 0 -27 -7 -31 -15 -3 -8
-13 -15 -21 -15 -13 0 -15 -6 -10 -29 4 -17 2 -32 -5 -36 -6 -4 -8 -20 -4 -40
6 -32 -8 -56 -21 -35 -3 5 -17 10 -31 10 -30 0 -30 14 1 69 14 24 28 67 31 95
3 28 10 53 15 54 5 2 9 12 9 23 0 10 5 19 10 19 6 0 10 9 10 20 0 11 7 20 15
20 8 0 20 -9 27 -20z m-419 -112 c15 -7 27 -16 27 -20 0 -5 18 -8 40 -8 l40 0
0 -160 c0 -153 1 -160 20 -160 19 0 20 -7 20 -160 l0 -160 -174 0 c-173 0
-175 0 -178 23 -2 12 -9 21 -17 19 -7 -1 -15 7 -18 18 -3 11 -14 20 -24 20
-16 0 -19 8 -19 41 0 32 -4 42 -20 46 -11 3 -20 12 -20 19 0 8 -8 14 -19 14
-19 0 -31 34 -31 91 0 26 -3 29 -35 29 -28 0 -35 4 -35 20 0 13 -7 20 -20 20
-13 0 -20 7 -20 20 0 12 7 20 16 20 9 0 18 -9 21 -20 8 -29 73 -29 73 -1 0 16
-8 20 -37 23 -27 2 -39 8 -41 21 -2 12 3 17 17 17 13 0 21 6 21 18 0 9 9 23
20 30 23 14 26 32 6 32 -7 0 -16 -9 -19 -20 -3 -12 -14 -20 -27 -20 -14 0 -20
-5 -18 -17 2 -10 -4 -19 -14 -21 -16 -3 -18 7 -18 97 l0 101 94 0 c86 0 95 2
101 20 6 19 15 20 134 20 81 0 137 -5 154 -12z m484 -35 c-3 -10 -5 -4 -5 12
0 17 2 24 5 18 2 -7 2 -21 0 -30z m20 -60 c-3 -10 -5 -2 -5 17 0 19 2 27 5 18
2 -10 2 -26 0 -35z m-1277 7 c0 -17 7 -20 40 -20 33 0 40 -3 40 -20 0 -11 -7
-20 -15 -20 -8 0 -15 -9 -15 -20 0 -11 7 -20 15 -20 8 0 15 9 15 20 0 13 7 20
20 20 13 0 20 -7 20 -20 0 -13 7 -20 20 -20 13 0 20 -7 20 -20 0 -13 7 -20 20
-20 13 0 20 -7 20 -20 0 -13 7 -20 20 -20 14 0 20 -7 20 -21 0 -12 8 -23 20
-26 11 -3 20 -12 20 -19 0 -8 9 -14 19 -14 16 0 20 -8 23 -42 2 -35 6 -42 21
-40 12 2 17 -4 17 -18 0 -13 8 -24 19 -27 11 -3 21 -13 24 -24 3 -10 12 -19
21 -19 12 0 16 -10 16 -35 0 -28 4 -35 20 -35 14 0 20 -7 20 -21 0 -12 8 -23
20 -26 11 -3 20 -12 20 -19 0 -10 -15 -14 -59 -14 l-60 0 -3 37 c-4 52 -28 56
-28 4 l0 -41 -105 0 c-87 0 -105 3 -105 15 0 8 -4 15 -10 15 -5 0 -10 -7 -10
-15 0 -9 -9 -15 -25 -15 -20 0 -25 5 -25 25 0 14 -6 25 -12 26 -9 0 -9 2 -2 5
7 3 10 14 7 24 -4 14 0 20 11 20 9 0 16 5 16 10 0 6 -7 10 -15 10 -8 0 -15 7
-15 16 0 11 -10 5 -32 -17 l-33 -33 -3 37 c-3 29 -7 37 -23 37 -23 0 -25 15
-4 24 10 3 15 19 15 47 0 28 -4 39 -12 36 -7 -2 -12 -9 -11 -14 1 -5 -9 -10
-23 -11 -18 -1 -24 3 -24 18 0 13 -7 20 -20 20 -11 0 -20 6 -20 14 0 8 -3 21
-6 30 -4 11 -1 16 10 16 9 0 16 5 16 10 0 6 -5 9 -12 8 -6 -2 -14 8 -18 22 -7
23 -8 23 -15 6 -8 -18 -9 -18 -17 3 -5 15 -14 21 -23 17 -12 -4 -15 3 -15 35
0 33 3 40 15 35 11 -4 15 2 15 24 0 30 -14 41 -23 18 -3 -7 -6 -3 -6 8 -1 14
7 24 19 27 12 3 20 14 20 26 0 19 6 21 75 21 68 0 75 -2 75 -20z m1360 -80 c0
-17 7 -20 41 -20 32 0 42 -4 46 -20 4 -15 14 -20 39 -20 27 0 34 -4 34 -20 0
-18 -7 -20 -55 -20 -48 0 -55 -2 -55 -20 0 -18 7 -20 54 -20 45 0 54 3 59 20
4 17 14 20 66 20 54 0 61 -2 61 -20 0 -16 7 -20 35 -20 28 0 35 -4 35 -20 0
-17 7 -20 41 -20 32 0 42 -4 46 -19 3 -11 13 -21 24 -24 10 -3 19 -10 19 -16
0 -18 -29 -25 -45 -11 -8 6 -18 9 -24 6 -5 -3 -11 1 -15 9 -8 23 -46 19 -46
-5 0 -13 7 -20 19 -20 11 0 23 -4 26 -10 3 -5 -3 -10 -14 -10 -12 0 -21 -4
-21 -10 0 -5 -9 -10 -20 -10 -13 0 -20 -7 -20 -20 0 -13 -7 -20 -20 -20 -13 0
-20 -7 -20 -20 0 -11 -4 -20 -10 -20 -5 0 -10 -6 -10 -13 0 -27 -26 -67 -42
-67 -11 0 -18 -8 -18 -20 0 -13 -7 -20 -20 -20 -13 0 -20 7 -20 20 0 11 7 20
15 20 8 0 15 9 15 20 0 11 5 20 10 20 6 0 10 9 10 20 0 12 7 20 16 20 25 0 15
91 -12 110 -21 15 -24 19 -24 40 0 6 -25 10 -55 10 -30 0 -55 -4 -55 -9 0 -5
-9 -11 -20 -14 -22 -6 -28 -37 -7 -37 8 0 22 9 32 20 21 23 60 26 81 6 18 -19
18 -34 -1 -52 -8 -9 -15 -27 -15 -41 0 -18 -4 -24 -15 -19 -11 4 -15 -2 -15
-20 0 -17 -7 -28 -20 -31 -12 -3 -20 -14 -20 -25 0 -17 -5 -20 -30 -16 -16 3
-30 0 -30 -4 0 -18 -29 -38 -55 -38 -25 0 -26 3 -22 35 3 19 1 35 -3 35 -5 0
-11 12 -13 28 -2 15 -5 -1 -6 -35 l-1 -63 -65 0 c-51 0 -65 3 -65 15 0 10 -11
15 -35 15 -24 0 -35 -5 -35 -15 0 -11 -11 -15 -40 -15 -33 0 -40 3 -40 20 0
13 7 20 20 20 17 0 20 7 20 40 0 33 3 40 20 40 16 0 20 7 20 34 0 25 5 35 20
39 12 3 20 14 20 26 0 14 6 21 20 21 16 0 20 7 20 34 0 25 5 35 20 39 12 3 20
14 20 26 0 14 6 21 20 21 13 0 20 7 20 20 0 13 7 20 20 20 13 0 20 7 20 20 0
11 7 20 15 20 8 0 15 9 15 20 0 11 -7 20 -15 20 -8 0 -15 9 -15 20 0 16 7 20
35 20 28 0 35 -4 35 -20z m-285 -30 c3 -5 21 -10 39 -10 34 0 86 -20 86 -32 0
-5 -20 -8 -45 -8 -25 0 -45 5 -45 10 0 6 -16 10 -35 10 -19 0 -35 5 -35 10 0
6 -9 10 -20 10 -11 0 -20 5 -20 10 0 6 15 10 34 10 19 0 38 -4 41 -10z m-33
-65 c-2 -5 -14 -9 -27 -7 -31 4 -31 -1 -1 -31 22 -22 24 -23 35 -5 13 22 28
23 47 4 19 -19 18 -46 -3 -61 -18 -13 -53 -9 -53 7 0 6 -9 8 -21 5 -24 -6 -49
1 -49 14 0 5 7 9 17 9 15 0 15 1 0 18 -20 22 -21 28 -4 47 13 16 64 16 59 0z
m128 -53 c0 -13 -23 -32 -38 -32 -11 0 -12 3 -3 13 6 8 8 17 4 20 -3 4 3 7 15
7 12 0 22 -4 22 -8z m-117 -104 c35 -17 34 -28 -1 -28 -30 0 -82 20 -82 33 0
11 53 8 83 -5z m-253 -308 c0 -19 -8 -20 -377 -22 -370 -3 -378 -3 -379 -23
-2 -48 -5 -55 -22 -55 -15 0 -19 9 -21 50 -1 28 1 55 4 60 4 6 152 10 401 10
387 0 394 0 394 -20z m885 -5 c0 -13 -6 -20 -17 -19 -10 1 -189 2 -398 3 -374
1 -380 1 -380 21 0 20 5 20 398 18 389 -3 397 -3 397 -23z m-20 -64 c3 -5 1
-12 -5 -16 -5 -3 -10 1 -10 9 0 18 6 21 15 7z m-539 -265 c3 -19 3 -39 0 -44
-8 -13 -81 1 -80 16 1 6 2 23 3 37 1 22 6 25 36 25 31 0 35 -3 41 -34z m-698
-8 c-6 -18 -13 -27 -15 -21 -4 11 13 53 22 53 2 0 -1 -15 -7 -32z m532 -3 c0
-24 -5 -35 -15 -35 -10 0 -15 11 -15 35 0 24 5 35 15 35 10 0 15 -11 15 -35z
m323 -97 c11 -146 10 -156 -27 -149 -5 1 -4 -5 4 -13 8 -11 9 -16 1 -16 -6 0
-11 -9 -11 -20 0 -11 -4 -20 -10 -20 -5 0 -10 -4 -10 -9 0 -5 8 -8 18 -7 20 4
32 -11 32 -42 0 -19 -5 -22 -30 -20 -31 2 -43 18 -14 18 12 0 11 6 -7 32 -21
29 -23 44 -24 162 -1 72 0 134 2 139 2 4 19 7 38 7 l33 0 5 -62z m-162 -231
c9 -13 -5 -60 -19 -65 -7 -2 -12 5 -12 17 0 14 -6 21 -20 21 -13 0 -20 7 -20
20 0 17 6 20 33 18 17 -1 35 -6 38 -11z m-1541 -412 c0 -8 9 -15 20 -15 17 0
20 -7 20 -50 0 -43 -3 -50 -20 -50 -28 0 -28 -50 0 -57 19 -5 21 -12 18 -67
l-3 -61 -50 0 -50 0 -3 63 -3 62 -39 0 -40 0 0 -66 0 -65 -52 3 -53 3 -3 158
-3 157 131 0 c109 0 130 -2 130 -15z m380 -15 l0 -30 -95 0 -95 0 0 -35 c0
-35 0 -35 46 -35 44 0 45 -1 42 -27 -3 -25 -7 -28 -45 -31 -40 -3 -43 -5 -43
-33 l0 -29 95 0 95 0 0 -35 0 -35 -92 0 c-116 0 -168 8 -168 26 0 8 -7 14 -15
14 -11 0 -15 11 -15 43 0 23 -2 77 -4 121 -3 70 -1 79 16 84 10 2 18 11 18 18
0 11 26 14 130 14 l130 0 0 -30z m330 0 c0 -29 -2 -30 -45 -30 l-44 0 -3 -127
-3 -128 -50 0 -50 0 -3 128 -3 127 -39 0 c-38 0 -40 2 -40 30 l0 30 140 0 140
0 0 -30z m300 15 c0 -8 7 -15 15 -15 11 0 15 -12 15 -50 0 -38 -4 -50 -15 -50
-10 0 -15 -10 -15 -30 0 -20 5 -30 15 -30 12 0 15 -14 15 -66 l0 -65 -47 3
-48 3 -3 63 -3 62 -44 0 -45 0 0 -65 0 -65 -50 0 -50 0 0 160 0 160 130 0
c109 0 130 -2 130 -15z m340 1 c0 -7 9 -16 20 -19 19 -5 20 -14 20 -126 0
-112 -1 -121 -19 -121 -10 0 -21 -9 -24 -20 -5 -18 -14 -20 -112 -20 -98 0
-107 2 -112 20 -3 11 -12 20 -19 20 -11 0 -14 25 -14 125 0 104 2 125 15 125
8 0 15 7 15 15 0 12 19 15 115 15 91 0 115 -3 115 -14z m190 -1 c0 -8 5 -15
10 -15 6 0 10 -4 10 -10 0 -10 36 -50 45 -50 9 0 45 40 45 50 0 6 7 10 15 10
8 0 15 7 15 15 0 11 12 15 50 15 l50 0 0 -161 0 -160 -47 3 -48 3 -3 78 c-2
59 -6 77 -17 77 -8 0 -15 -7 -15 -15 0 -8 -7 -15 -15 -15 -8 0 -15 -7 -15 -15
0 -8 -7 -15 -15 -15 -8 0 -15 7 -15 15 0 8 -7 15 -15 15 -8 0 -15 7 -15 15 0
8 -4 15 -9 15 -4 0 -12 -36 -15 -80 l-7 -80 -50 0 -49 0 0 160 0 160 55 0 c42
0 55 -3 55 -15z m550 0 c0 -8 7 -15 15 -15 13 0 15 -23 15 -145 l0 -145 -50 0
-50 0 0 65 0 65 -45 0 -45 0 0 -65 0 -65 -50 0 -50 0 0 145 c0 122 2 145 15
145 8 0 15 7 15 15 0 12 19 15 115 15 96 0 115 -3 115 -15z m340 0 c0 -8 7
-15 15 -15 11 0 15 -12 15 -50 0 -38 -4 -50 -15 -50 -10 0 -15 -10 -15 -30 0
-20 5 -30 15 -30 12 0 15 -14 15 -65 l0 -65 -50 0 -50 0 0 65 0 65 -45 0 -45
0 0 -65 0 -65 -50 0 -50 0 0 160 0 160 130 0 c109 0 130 -2 130 -15z m360 -15
c0 -29 -2 -30 -45 -30 l-45 0 0 -130 0 -130 -50 0 -50 0 -2 53 c-1 28 -3 75
-4 102 -1 28 -3 62 -3 78 -1 25 -4 27 -41 27 -38 0 -40 2 -40 30 l0 30 140 0
140 0 0 -30z m-820 -540 c0 -5 -7 -7 -15 -4 -8 4 -15 8 -15 10 0 2 7 4 15 4 8
0 15 -4 15 -10z m-133 -76 c-3 -3 -12 -4 -19 -1 -8 3 -5 6 6 6 11 1 17 -2 13
-5z"/>
<path d="M2820 2952 c0 -5 7 -9 15 -9 8 0 15 4 15 9 0 4 -7 8 -15 8 -8 0 -15
-4 -15 -8z"/>
<path d="M2561 2934 c0 -11 3 -14 6 -6 3 7 2 16 -1 19 -3 4 -6 -2 -5 -13z"/>
<path d="M2900 2920 c0 -5 7 -10 15 -10 9 0 15 -9 15 -22 0 -34 11 -68 22 -68
5 0 6 19 2 45 -5 38 -4 45 10 45 9 0 16 5 16 10 0 6 -18 10 -40 10 -22 0 -40
-4 -40 -10z"/>
<path d="M2813 2913 c-8 -3 -13 -24 -13 -54 l0 -49 45 0 c25 0 45 5 45 11 0 6
-14 9 -32 7 -24 -2 -33 1 -33 12 0 8 10 16 23 18 12 2 22 7 22 11 0 5 -11 6
-25 3 -18 -3 -25 0 -25 12 0 10 9 16 24 16 14 0 28 5 31 10 6 10 -39 13 -62 3z"/>
<path d="M2707 2869 c-3 -22 -8 -43 -11 -47 -9 -8 -35 29 -36 50 0 25 -20 33
-20 7 0 -23 37 -89 50 -89 12 0 40 65 40 94 0 41 -17 30 -23 -15z"/>
<path d="M2754 2873 c3 -21 6 -46 6 -55 0 -10 5 -18 10 -18 11 0 13 33 4 79
-9 45 -28 39 -20 -6z"/>
<path d="M2975 2743 l-18 -27 -11 25 c-9 22 -11 20 -14 -25 -2 -27 2 -54 7
-59 8 -8 11 -3 11 16 0 33 7 34 37 5 31 -29 43 -14 13 17 -22 23 -22 26 -7 43
19 21 22 32 8 32 -5 0 -17 -12 -26 -27z"/>
<path d="M2783 2699 c6 -51 12 -67 22 -58 8 9 -8 109 -18 109 -6 0 -7 -20 -4
-51z"/>
<path d="M2830 2701 c0 -28 3 -52 8 -54 12 -7 72 5 72 14 0 5 -13 9 -30 9 -28
0 -30 2 -30 40 0 22 -4 40 -10 40 -5 0 -10 -22 -10 -49z"/>
<path d="M2649 2736 c-10 -10 4 -106 15 -106 8 0 11 11 8 30 -4 29 10 41 23
19 5 -7 14 -4 26 7 18 16 19 16 19 -14 0 -18 5 -32 10 -32 12 0 13 70 1 89 -7
10 -13 8 -27 -12 l-19 -25 -26 24 c-14 13 -27 22 -30 20z"/>
<path d="M2160 2760 c0 -64 3 -80 15 -80 12 0 15 16 15 80 0 64 -3 80 -15 80
-12 0 -15 -16 -15 -80z"/>
<path d="M2367 2664 c-8 -8 1 -24 14 -24 5 0 9 7 9 15 0 15 -12 20 -23 9z"/>
<path d="M2320 2555 c0 -60 3 -75 15 -75 12 0 15 15 15 75 0 60 -3 75 -15 75
-12 0 -15 -15 -15 -75z"/>
<path d="M3480 2821 c0 -16 6 -19 35 -18 54 3 40 37 -16 37 -12 0 -19 -7 -19
-19z"/>
<path d="M3440 2744 c0 -20 24 -44 43 -44 9 0 18 -6 20 -12 3 -7 6 -3 6 10 1
16 -5 22 -19 22 -13 0 -20 7 -20 20 0 11 -7 20 -15 20 -8 0 -15 -7 -15 -16z"/>
<path d="M3680 2736 c0 -9 12 -14 35 -14 23 0 35 5 35 14 0 9 -12 14 -35 14
-23 0 -35 -5 -35 -14z"/>
<path d="M3760 2700 c0 -16 7 -20 35 -20 28 0 35 4 35 20 0 16 -7 20 -35 20
-28 0 -35 -4 -35 -20z"/>
<path d="M3437 2674 c-12 -12 6 -34 29 -34 28 0 30 6 10 26 -15 15 -29 18 -39
8z"/>
<path d="M3400 2634 c0 -13 30 -34 49 -34 29 0 26 13 -6 28 -29 13 -43 15 -43
6z"/>
<path d="M3508 2603 c-10 -2 -21 -17 -25 -31 -3 -15 -11 -31 -17 -35 -8 -6 -7
-10 2 -14 6 -2 12 -13 12 -24 0 -25 30 -25 37 1 3 11 10 20 15 20 5 0 16 6 24
14 15 16 19 30 6 22 -4 -2 -14 -1 -22 5 -10 6 -11 9 -2 9 6 0 12 10 12 22 0
21 0 21 -15 2 -13 -16 -14 -16 -9 -1 3 9 5 16 3 16 -2 -1 -12 -3 -21 -6z"/>
<path d="M3360 2594 c0 -3 6 -12 14 -20 17 -16 66 -19 66 -4 0 6 -9 10 -19 10
-11 0 -23 5 -26 10 -7 11 -35 14 -35 4z"/>
<path d="M3320 2536 c0 -11 9 -16 29 -16 16 0 32 -6 34 -12 3 -7 6 -3 6 10 1
12 -5 22 -11 22 -7 0 -23 3 -35 6 -17 5 -23 2 -23 -10z"/>
<path d="M3280 2490 c0 -23 4 -30 20 -30 11 0 20 -4 20 -10 0 -5 7 -10 15 -10
8 0 15 9 15 20 0 13 -7 20 -20 20 -13 0 -20 7 -20 20 0 11 -7 20 -15 20 -10 0
-15 -10 -15 -30z"/>
<path d="M3220 2741 c0 -12 5 -21 10 -21 6 0 10 6 10 14 0 8 -4 18 -10 21 -5
3 -10 -3 -10 -14z"/>
<path d="M1580 1175 c0 -34 1 -35 40 -35 39 0 40 1 40 35 0 34 -1 35 -40 35
-39 0 -40 -1 -40 -35z"/>
<path d="M2582 1178 c3 -31 6 -33 46 -36 l42 -3 0 35 c0 36 0 36 -46 36 -45 0
-45 0 -42 -32z"/>
<path d="M2920 1115 l0 -95 45 0 45 0 0 95 0 95 -45 0 -45 0 0 -95z"/>
<path d="M3660 1175 c0 -35 0 -35 45 -35 45 0 45 0 45 35 0 35 0 35 -45 35
-45 0 -45 0 -45 -35z"/>
<path d="M4000 1174 l0 -35 43 3 c39 3 42 5 45 36 3 32 3 32 -42 32 -46 0 -46
0 -46 -36z"/>
</g>
</svg>
